<svg width="131" height="132" viewBox="0 0 131 132" fill="none" xmlns="http://www.w3.org/2000/svg">
<path d="M71.6348 22.6047L76.6493 17.5902C86.4965 7.74297 102.528 7.49924 112.432 17.2897C116.185 21.0078 118.679 25.8079 119.563 31.016C120.448 36.2242 119.679 41.5786 117.364 46.3271C116.253 48.5955 115.88 51.1539 116.293 53.6452C116.708 56.1365 117.89 58.4361 119.675 60.2229C122.957 56.9335 125.558 53.0296 127.33 48.7345C129.103 44.4393 130.012 39.837 130.006 35.1905C129.998 30.544 129.077 25.9443 127.292 21.6542C125.507 17.364 122.895 13.4675 119.604 10.1874C105.755 -3.58337 83.2758 -3.30933 69.4657 10.5001L21.6688 58.2957L17.7395 54.3663C7.7253 44.3521 7.66147 27.9829 17.8523 18.1466C21.6245 14.5169 26.4304 12.1475 31.6066 11.3653C36.7829 10.5832 42.0742 11.427 46.7505 13.7801C48.8848 14.8739 51.3103 15.2651 53.6803 14.8981C56.0504 14.531 58.2438 13.4243 59.9473 11.7361L60.0692 11.6149C60.1071 11.5773 60.1372 11.5325 60.1577 11.4831C60.1782 11.4337 60.1888 11.3808 60.1888 11.3274C60.1888 11.2739 60.1782 11.221 60.1577 11.1716C60.1372 11.1223 60.1071 11.0775 60.0692 11.0398C53.4906 4.62647 44.675 1.02414 35.4876 0.995012C26.3003 0.965893 17.4619 4.51227 10.8429 10.8837C-3.41537 24.648 -3.36441 47.5367 10.6494 61.5506L58.4321 109.333L53.3563 114.409C43.5091 124.256 27.4771 124.5 17.5738 114.709C13.8211 110.992 11.3272 106.191 10.4425 100.983C9.55785 95.7753 10.3267 90.421 12.6412 85.6721C13.7516 83.4037 14.1258 80.8452 13.7116 78.3544C13.2974 75.8629 12.1155 73.563 10.3309 71.7763C7.04911 75.066 4.44762 78.9695 2.67502 83.2645C0.902414 87.56 -0.00655107 92.1619 3.55412e-05 96.8089C0.00662218 101.455 0.928631 106.055 2.71341 110.345C4.49819 114.635 7.11075 118.532 10.4018 121.812C24.2499 135.583 46.7298 135.31 60.5399 121.5L108.399 73.6403L112.343 77.5845C122.19 87.4317 122.434 103.463 112.643 113.366C108.925 117.12 104.125 119.613 98.9171 120.498C93.7091 121.383 88.3548 120.614 83.6059 118.299C81.3369 117.188 78.7771 116.813 76.285 117.229C73.7929 117.643 71.4923 118.826 69.7056 120.613C72.9953 123.894 76.8988 126.496 81.1938 128.269C85.4893 130.041 90.0912 130.95 94.7382 130.944C99.3845 130.937 103.984 130.015 108.274 128.23C112.565 126.445 116.461 123.833 119.741 120.542C133.513 106.693 133.239 84.2136 119.429 70.4042L71.6348 22.6047ZM65.5673 102.195L28.806 65.4335L64.497 29.7432L101.258 66.5045L65.5673 102.195Z" fill="#18ACCD"/>
</svg>
